<svg xmlns="http://www.w3.org/2000/svg" data-name="Layer 1" viewBox="0 0 192 192"><path fill="none" stroke="#fff" stroke-linecap="round" stroke-linejoin="round" stroke-width="8" d="M140.61 48.84h-20.14a12.06 12.06 0 0 1-12.08-12V13.72"/><path fill="none" stroke="#fff" stroke-linecap="round" stroke-linejoin="round" stroke-width="8" d="M143.63 67.27V51.71a8 8 0 0 0-2-5.27l-27.83-32a8.11 8.11 0 0 0-6.05-2.76H34.88A12.06 12.06 0 0 0 22.8 23.75h0v144.5a12.07 12.07 0 0 0 12.08 12.05h96.67a12.07 12.07 0 0 0 12.08-12.05V94"/><path fill="none" stroke="#fff" stroke-linecap="round" stroke-linejoin="round" stroke-width="8" d="M165.35 58.9h0a9.12 9.12 0 0 1 0 12.91l-2.85 2.85h0l-12.94-12.91h0l2.86-2.85a9.16 9.16 0 0 1 12.93 0zM163.51 76.67l5.7 5.68-30.5 30.44"/><path fill="none" stroke="#fff" stroke-linecap="round" stroke-linejoin="round" stroke-width="8" d="M149.57 61.75l-75.63 75.48-4.72 17.63 17.67-4.74 75.62-75.45-12.94-12.92h0zM73.94 137.23l12.95 12.89"/><path fill="none" d="M0 0h192v192H0z"/></svg>