<svg xmlns="http://www.w3.org/2000/svg" viewBox="0 0 192 192"><g fill="none" stroke-linecap="round" stroke-linejoin="round" stroke-miterlimit="10" stroke-width="8"><ellipse cx="138" cy="78.7" stroke="#1482fa" rx="26" ry="35"/><path stroke="#1482fa" d="M121 135c5-5 9.7-18 2.7-27M138.7 139c-9.1 0-17.7-4-17.7-4-4.5 2.1-8 4-11 6M155 135c-5-5-9.7-18-2.7-27"/><path stroke="#1482fa" d="M137.3 139c9.1 0 17.7-4 17.7-4 10.9 5.2 19 9 25 21"/><path stroke="#0b41cd" d="M78 135c-3.1-5.8-10-20.9-1-33M57 36c-23.4 0-30 18.1-30 40s20 39 30 39 30-17.1 30-39-6.6-40-30-40zM36 135c3.1-5.8 10-21.2 1-33M12 156c4.7-7.7 11.9-15.2 24-21 0 0 10.9 5 21 5s21-5 21-5c12.1 5.8 19.3 13.3 24 21"/></g></svg>