<svg xmlns="http://www.w3.org/2000/svg" data-name="Layer 1" viewBox="0 0 192 192"><path fill="none" stroke="#1482fa" stroke-linecap="round" stroke-linejoin="round" stroke-width="8" d="M85.86 109.56l4.46 32.82M85.86 109.56h-4.47a3.82 3.82 0 0 1-3.82-3.83v-.6a3.82 3.82 0 0 1 3.79-3.86H82a3.86 3.86 0 0 1 3.86 3.86zM106.17 109.56l-4.49 32.82M106.17 109.56h4.44a3.82 3.82 0 0 0 3.85-3.8v-.63a3.85 3.85 0 0 0-3.85-3.86h-.46a3.83 3.83 0 0 0-3.83 3.83v0zM85.86 109.56h20.31M169.3 86.16h-18.18"/><path fill="none" stroke="#00925b" stroke-miterlimit="10" stroke-width="8" d="M40.88 86.07H22.7"/><path fill="none" stroke="#1482fa" stroke-linecap="round" stroke-linejoin="round" stroke-width="8" d="M32.56 49.39L48.3 58.5M143.7 113.73l15.77 9.1M59.39 22.58l9.1 15.75M22.7 86.16h18.18M151.12 86.07h18.18M159.47 49.39L143.7 58.5M48.3 113.73l-15.74 9.1M132.61 22.58l-9.1 15.75M96.05 12.78v18.19"/><path fill="none" stroke="#0b41cd" stroke-linecap="round" stroke-linejoin="round" stroke-width="8" d="M137.49 85.56a41.48 41.48 0 1 0-72.86 27.14 27.17 27.17 0 0 1 6.58 17.89v3.28a8.57 8.57 0 0 0 8.53 8.57h32.52a8.59 8.59 0 0 0 8.56-8.57v-3.34a27.17 27.17 0 0 1 6.58-17.89 41.36 41.36 0 0 0 10.09-27.08zM109.84 168.16H82.17c-2.55 0-4.62-2.76-4.62-6.16h0c0-3.38 2-6.14 4.55-6.17h27.74c2.55 0 4.61 2.76 4.61 6.17h0c0 3.39-2.07 6.14-4.61 6.16z"/><path fill="none" stroke="#0b41cd" stroke-linecap="round" stroke-linejoin="round" stroke-width="8" d="M112.94 142.44c2.35 0 4.25 2.76 4.25 6.17v.53c0 3.7-2.06 6.69-4.61 6.69H79.42c-2.54 0-4.61-3-4.61-6.69v-.49c0-3.4 1.87-6.19 4.22-6.21h.06M108.93 170.13a13.74 13.74 0 0 1-25.86 0"/><path fill="none" d="M0 0h192v192H0z"/></svg>